<?xml version="1.0" encoding="UTF-8"?>
<!DOCTYPE svg PUBLIC "-//W3C//DTD SVG 1.1//EN" "http://www.w3.org/Graphics/SVG/1.1/DTD/svg11.dtd">
<!-- Creator: CorelDRAW 2019 (64-Bit) -->
<svg xmlns="http://www.w3.org/2000/svg" xml:space="preserve" width="1097.12mm" height="347.02mm" version="1.1" style="shape-rendering:geometricPrecision; text-rendering:geometricPrecision; image-rendering:optimizeQuality; fill-rule:evenodd; clip-rule:evenodd"
viewBox="0 0 109711.78 34701.97"
 xmlns:xlink="http://www.w3.org/1999/xlink">
 <defs>
  <style type="text/css">
   <![CDATA[
    .fil0 {fill:#FEFEFE}
   ]]>
  </style>
 </defs>
 <g id="图层_x0020_1">
  <metadata id="CorelCorpID_0Corel-Layer"/>
  <path class="fil0" d="M53533.82 4971.09l-1152.81 9456.58c1619.26,-41.66 3225,-54.12 4820.98,-37.78l1259.1 -10328.63c38.16,-313.37 33.15,-486.61 313.32,-576.84 187.41,-60.42 304.43,-87.96 489.25,-125.26 1374.07,-277.91 2597.6,124.78 2383.03,1887.47l-1123.87 9219.64c1570.43,55.95 3134.88,140.25 4697.17,252.52l88.29 0 1266.92 -10394.6 0.16 0c594.89,-3341.48 -3558.32,-3840.97 -6015.35,-3796.5 -2466.41,44.25 -4109.17,848.01 -4108.04,847.42l-56.38 21.4c-70.18,-85.54 -967.18,-1115.62 -3337.81,-839.28 -2472.39,288.31 -3887.75,1256.03 -7554.88,1256.03l-1623.79 13087.34c1637.81,-137.88 3255.83,-248.37 4857.79,-331.38l1158.58 -9505.2c181.64,-1490.23 3366.54,-2334.89 3638.36,-92.92l-0.01 -0.01zm42292.81 27750.12l-20741.34 0 0 -479.22 20741.34 0 0 479.22zm-61199.95 0l-20741.34 0 0 -479.22 20741.34 0 0 479.22zm7134.08 -1964.55c-310.36,-364.09 -710.24,-495.39 -1181.76,-495.39 -740.1,0 -1438.43,405.87 -1438.43,1217.6 0,704.31 453.57,966.91 1050.46,1163.92 752.07,250.69 1104.2,340.22 1104.2,859.49 0,483.43 -489.47,734.12 -919.16,734.12 -364.09,0 -722.21,-161.16 -901.26,-471.52l-429.74 352.13c286.48,423.76 811.73,584.92 1301.15,584.92 763.98,0 1486.24,-393.9 1486.24,-1235.55 0,-829.63 -608.8,-1044.47 -1265.36,-1253.39 -674.45,-214.85 -889.35,-387.92 -889.35,-775.94 0,-501.38 459.61,-710.24 901.26,-710.24 304.43,0 602.82,119.33 769.91,387.97l411.85 -358.11 -0.01 -0.01zm901.27 3837.84l501.38 0 0 -4225.81 -501.38 0 0 4225.81zm1551.83 0l501.38 0 0 -3509.54 11.97 0 2447.17 3509.54 632.68 0 0 -4225.81 -501.38 0 0 3509.54 -11.97 0 -2447.17 -3509.54 -632.68 0 0 4225.81zm8039.77 -3670.7c-358.11,-465.59 -919.16,-662.54 -1492.17,-662.54 -1253.44,0 -2148.72,978.88 -2148.72,2220.36 0,1283.25 937.05,2220.36 2148.72,2220.36 674.45,0 1223.58,-232.79 1599.59,-740.1l-376.01 -316.34c-298.44,381.99 -710.29,590.91 -1223.58,590.91 -949.02,0 -1611.56,-775.89 -1611.56,-1754.77 0,-925.14 668.47,-1754.77 1611.56,-1754.77 405.87,0 805.75,173.13 1056.44,513.29l435.73 -316.34 0 -0.06zm805.75 3670.7l2763.51 0 0 -465.53 -2262.13 0 0 -1504.08 2011.49 0 0 -465.59 -2011.49 0 0 -1325.02 2154.71 0 0 -465.59 -2656.08 0 0 4225.81 -0.01 0zm6822.17 -4225.81l-435.67 0 -1134.06 919.16 298.44 364.09 758 -638.66 11.97 0 0 3581.17 501.38 0 0 -4225.81 -0.06 0.05zm2136.81 4225.81l584.92 0 1122.14 -1784.63c226.76,-364.09 399.88,-698.33 399.88,-1187.74 0,-823.7 -614.73,-1325.08 -1414.61,-1325.08 -799.77,0 -1414.55,501.38 -1414.55,1325.08 0,787.86 543.15,1325.02 1277.32,1325.02 173.07,0 411.85,-35.84 567.03,-125.37l11.91 11.91 -1134.06 1760.75 0.02 0.06zm692.35 -2077.09c-507.31,0 -913.23,-346.15 -913.23,-895.28 0,-549.13 405.87,-895.28 913.23,-895.28 507.36,0 913.23,346.2 913.23,895.28 0,549.13 -405.87,895.28 -913.23,895.28zm2112.93 -1116.11c0,399.94 262.6,817.72 692.35,931.07l0 11.91c-507.31,107.42 -835.61,555.12 -835.61,1086.3 0,769.96 596.83,1235.55 1348.9,1235.55 752.07,0 1348.95,-465.59 1348.95,-1235.55 0,-531.24 -328.25,-978.88 -835.61,-1086.3l0 -11.91c429.74,-113.41 692.4,-531.18 692.4,-931.07 0,-662.54 -525.26,-1104.25 -1205.69,-1104.25 -680.38,0 -1205.63,441.71 -1205.63,1104.25l-0.06 0zm501.38 23.88c0,-399.94 286.48,-698.33 704.26,-698.33 417.83,0 704.31,298.39 704.31,698.33 0,399.88 -286.48,698.33 -704.31,698.33 -417.78,0 -704.26,-298.39 -704.26,-698.33zm-143.21 1969.67c0,-495.39 376.01,-841.54 847.52,-841.54 471.57,0 847.58,346.15 847.58,841.54 0,495.39 -376.01,841.59 -847.58,841.59 -471.52,0 -847.52,-346.2 -847.52,-841.59zm3724.43 -805.75l155.18 0c519.27,0 1068.41,196.95 1068.41,817.72 0,489.41 -381.99,829.63 -859.49,829.63 -465.59,0 -710.24,-173.07 -853.51,-626.7l-507.36 167.09c214.85,626.7 722.21,889.35 1360.87,889.35 752.07,0 1396.66,-417.83 1396.66,-1223.64 0,-531.18 -328.3,-972.89 -865.42,-1062.37l0 -11.91c423.76,-131.3 722.15,-525.26 722.15,-966.91 0,-728.19 -584.87,-1104.25 -1259.32,-1104.25 -537.22,0 -1020.65,238.72 -1223.64,716.28l483.48 185.04c149.2,-310.36 423.76,-471.52 775.89,-471.52 423.76,0 722.21,268.58 722.21,698.33 0,638.66 -543.15,734.12 -960.93,734.12l-155.18 0 0 429.8 0 -0.06zm-145.63 -28355.58l4816.29 0 -1279.32 10485.32 -4816.29 0 1279.32 -10485.32zm533.71 -4233.52l4676.52 1015.1 -353.8 2463.71 -4816.29 0 493.51 -3478.81 0.06 0zm-55374.54 346.85c-15891.65,0 -19546.98,25784.76 -3754.13,25784.76 15891.65,0 19547.14,-25784.76 3754.13,-25784.76zm3825.98 11667.39c-312.13,3532.23 -2446.63,8848.1 -6197.04,10049.16 -5164,1653.92 -5952.61,-4469.71 -5532.13,-8147.84 1251.34,-10946.75 13062.92,-13950.55 11729.17,-1901.32l-0.01 0zm21135.57 -10200.99l4816.29 0 -1690.57 13102.32c-2489.21,-703.88 -3216.37,-467.69 -5371.19,230.15 -3214.43,1040.92 -10624.38,800.31 -10037.19,-2741.3l1064.09 -9356.92c121.27,-1066.36 511.19,-1234.26 1680.01,-1234.26l3276.85 0 -1022.54 8990.35c-255.59,2250.11 5314.81,1957.16 6328.45,-1147.8l955.86 -7842.55 -0.05 0.01zm54385.1 4929.96c-2187.26,7172.46 2128.51,11826.24 9556.67,9026.41l-710.13 3984.45c-897.17,3652.48 -6681.77,2363.57 -9542.34,1657.53 -21541.7,-5316.53 -42854.93,-6145.57 -66875.23,-1847.04 -932.79,2199.12 -2349.77,4216.65 -4206.3,5760.94 26007.32,-5061.21 41632.16,-8057.55 67779.45,-1050.3 5758.84,1543.26 16528.04,6516.83 17893.28,-3521.23l2451.37 -18017.68c234.09,-1722.86 170.59,-2203.65 -1546.66,-2209.47l-5739.49 -27.22c-3983.21,0 -8038.8,2893.35 -9060.63,6243.61l0.01 0zm11065.55 -2509.63l-972.79 7009.09c0,0 -66.67,352.94 -688.3,666.1 -621.68,313.21 -1717.85,732.12 -3334.58,566.17 -1616.68,-166.07 -2558.52,-1270.75 -2420.49,-3206.08 255.7,-3585.37 3700.56,-6443.64 7416.14,-5035.34l0.01 0.05zm-25175.75 10485.31l-4816.23 0 1723.72 -13360.23c2489.48,703.77 3176.11,702.91 5338.09,27.76 3549.21,-1108.4 10037.19,-800.31 10037.19,2741.25l-1204.66 10591.28 -4816.23 0 991.54 -8718.53c51.04,-444.94 154.15,-755.62 -105.81,-1065.6 -1568.81,-1868.77 -5265.17,-721.51 -6191.76,1941.59l-955.92 7842.55 0.06 -0.07z"/>
 </g>
</svg>
