<?xml version="1.0" encoding="UTF-8"?>
<!DOCTYPE svg PUBLIC "-//W3C//DTD SVG 1.1//EN" "http://www.w3.org/Graphics/SVG/1.1/DTD/svg11.dtd">
<!-- Creator: CorelDRAW 2020 (64-Bit 评估版) -->
<svg xmlns="http://www.w3.org/2000/svg" xml:space="preserve" width="110.869mm" height="30.3012mm" version="1.1" style="shape-rendering:geometricPrecision; text-rendering:geometricPrecision; image-rendering:optimizeQuality; fill-rule:evenodd; clip-rule:evenodd"
viewBox="0 0 11072.66 3026.23"
 xmlns:xlink="http://www.w3.org/1999/xlink"
 xmlns:xodm="http://www.corel.com/coreldraw/odm/2003">
 <defs>
  <style type="text/css">
   <![CDATA[
    .fil0 {fill:#219491;fill-rule:nonzero}
   ]]>
  </style>
 </defs>
 <g id="图层_x0020_1">
  <metadata id="CorelCorpID_0Corel-Layer"/>
  <path class="fil0" d="M1380.89 384.64c-1576.51,0 -1939.14,2558 -372.4,2558 1576.52,0 1939.17,-2558 372.4,-2558zm6087.79 -0.95l-497.19 -137.19 0 -133.13 497.19 -113.36 0 383.69zm3440.68 111.17l-569.32 -2.76c-395.16,0 -797.49,287 -898.84,619.44 -217.03,711.49 211.09,1173.2 948,895.39l-46.41 302.96c-88.93,362.38 -662.87,234.48 -946.6,164.49 -2093.37,-516.71 -4306.87,-622.09 -6638.63,-224.74 -78.48,13.38 -172.83,81.94 -210.11,152.21 -111.98,211.45 -196.76,328.27 -293.84,423.94 -23.65,23.38 -2.91,63.17 29.76,56.98 2857.25,-539.48 4844.22,-699.28 6739.36,-118.28 565.52,173.35 1685.55,640.47 1821,-355.42l219.16 -1695.1c23.2,-170.94 16.92,-218.61 -153.52,-219.12zm-378.96 459.28l0 0 -87.96 608.75c0,0 -6.64,33.63 -68.3,63.4 -61.64,29.88 -170.41,69.83 -330.84,53.94 -160.34,-15.73 -253.8,-120.98 -240.07,-305.32 23.92,-322.09 329.36,-582.6 673.32,-498.55 35.89,8.77 58.91,42.62 53.85,77.78zm-3234.22 776.62l133.87 -1161.91 -458.53 -126.53 -148.74 1252.56 473.4 35.87zm-2961.23 -1200.66l-158.38 1221.47 -2.41 19.22c-17.8,-4.95 -34.72,-9.57 -50.76,-13.66 -207.18,-52.49 -283.65,-27.82 -482.06,36.51 -318.91,103.19 -1054.04,79.34 -995.76,-272.05l98.7 -868.99c12.03,-105.75 50.74,-122.49 166.61,-122.49l325.1 0 -94.52 832.67c-25.33,223.31 527.24,194.26 627.87,-113.76l87.88 -718.91 477.73 0zm4272.95 1375.4l127.91 -960.05c5.15,-44.19 15.33,-74.95 -10.38,-105.68 -155.62,-185.39 -522.36,-71.57 -614.31,192.67l-87.96 718.83 -5.31 61.74 -469.33 -57.3 161.06 -1270.64c246.79,69.74 315.07,69.74 529.46,2.85 352.1,-110.04 995.76,-79.54 995.76,271.87l-160.85 1234.66 -466.05 -88.96zm-2048.13 -224.45l110.21 -901.85c3.89,-21.73 5.65,-42.27 5.65,-61.69 0,-275.99 -374.69,-318.98 -602.34,-314.97 -244.59,4.41 -407.59,84.15 -407.59,84.15l-5.56 2.21c-7.01,-8.58 -95.86,-110.82 -331.13,-83.44 -245.36,28.71 -385.61,124.65 -749.5,124.65l-148.82 1197.45 481.99 -35 102.57 -840.02c18.07,-147.84 334.04,-231.46 360.89,-9.14l-101.6 832.33 478.95 -9.99 111.62 -912.52c3.82,-31.16 3.29,-48.36 30.91,-57.3 18.71,-5.93 30.22,-8.68 48.73,-12.5 136.23,-27.43 257.6,12.5 236.35,187.38l-97.44 796.24 476.12 14.02zm-4799.31 -138.89l0 0c-31.01,350.34 -242.72,877.76 -614.76,996.89 -512.36,164.06 -590.59,-443.44 -548.86,-808.29 124.2,-1085.96 1295.88,-1383.95 1163.62,-188.6z"/>
 </g>
</svg>
